<svg width="222" height="34" viewBox="0 0 222 34" fill="none" xmlns="http://www.w3.org/2000/svg">
<path d="M20.0726 2.09486V26H15.7071L5.30694 10.9542H5.13186V26H0.0776928V2.09486H4.51322L14.8316 17.129H15.0418V2.09486H20.0726ZM32.3257 26.3502C30.4815 26.3502 28.894 25.9767 27.5634 25.2296C26.2405 24.4748 25.2211 23.4087 24.5052 22.0314C23.7893 20.6462 23.4313 19.0082 23.4313 17.1173C23.4313 15.273 23.7893 13.6545 24.5052 12.2615C25.2211 10.8686 26.2288 9.7831 27.5283 9.00494C28.8356 8.22678 30.3686 7.8377 32.1273 7.8377C33.3101 7.8377 34.4112 8.02835 35.4306 8.40965C36.4577 8.78316 37.3526 9.34733 38.1152 10.1021C38.8856 10.857 39.4848 11.8063 39.9128 12.9502C40.3408 14.0863 40.5548 15.417 40.5548 16.9422V18.3079H25.4156V15.2263H35.8741C35.8741 14.5104 35.7185 13.8762 35.4072 13.3237C35.096 12.7712 34.6641 12.3394 34.1116 12.0281C33.5669 11.7091 32.9327 11.5495 32.209 11.5495C31.4542 11.5495 30.7849 11.7246 30.2013 12.0748C29.6255 12.4172 29.1741 12.8802 28.8473 13.4638C28.5205 14.0396 28.3532 14.6816 28.3454 15.3898V18.3195C28.3454 19.2066 28.5088 19.9731 28.8356 20.619C29.1703 21.2649 29.641 21.7629 30.248 22.1131C30.855 22.4633 31.5748 22.6383 32.4074 22.6383C32.9599 22.6383 33.4657 22.5605 33.9248 22.4049C34.3839 22.2493 34.7769 22.0158 35.1037 21.7045C35.4306 21.3933 35.6796 21.012 35.8508 20.5606L40.4497 20.8641C40.2163 21.9691 39.7377 22.934 39.014 23.7589C38.2981 24.576 37.3721 25.2141 36.236 25.6732C35.1076 26.1245 33.8042 26.3502 32.3257 26.3502ZM47.6341 8.07114L50.9257 14.3392L54.2991 8.07114H59.3999L54.2057 17.0356L59.54 26H54.4625L50.9257 19.8019L47.4473 26H42.3115L47.6341 17.0356L42.4982 8.07114H47.6341ZM73.8504 18.3662V8.07114H78.8228V26H74.0488V22.7434H73.8621C73.4574 23.7939 72.7843 24.6382 71.8427 25.2763C70.9089 25.9144 69.7689 26.2334 68.4227 26.2334C67.2243 26.2334 66.1699 25.9611 65.2595 25.4164C64.349 24.8717 63.637 24.0974 63.1234 23.0936C62.6176 22.0897 62.3608 20.8875 62.353 19.4868V8.07114H67.3255V18.5997C67.3333 19.658 67.6173 20.4945 68.1776 21.1093C68.7379 21.724 69.4888 22.0314 70.4304 22.0314C71.0295 22.0314 71.5898 21.8952 72.1112 21.6228C72.6326 21.3427 73.0528 20.9303 73.3718 20.3856C73.6986 19.8408 73.8582 19.1677 73.8504 18.3662ZM97.7176 13.1837L93.1653 13.4638C93.0875 13.0747 92.9202 12.7246 92.6634 12.4133C92.4066 12.0942 92.0681 11.8413 91.6479 11.6546C91.2355 11.46 90.7414 11.3628 90.1655 11.3628C89.3951 11.3628 88.7454 11.5262 88.2162 11.853C87.6871 12.1721 87.4225 12.6 87.4225 13.137C87.4225 13.565 87.5937 13.9268 87.9361 14.2225C88.2785 14.5182 88.866 14.7556 89.6986 14.9345L92.9436 15.5882C94.6866 15.9461 95.9862 16.522 96.8422 17.3157C97.6981 18.1094 98.1261 19.1522 98.1261 20.4439C98.1261 21.6189 97.7798 22.65 97.0873 23.5371C96.4025 24.4242 95.4609 25.1168 94.2625 25.6148C93.072 26.1051 91.6985 26.3502 90.1422 26.3502C87.7688 26.3502 85.8778 25.856 84.4694 24.8678C83.0687 23.8717 82.2477 22.5177 82.0065 20.8058L86.8972 20.549C87.0451 21.2727 87.403 21.8252 87.9711 22.2065C88.5392 22.58 89.2667 22.7667 90.1538 22.7667C91.0254 22.7667 91.7257 22.5994 92.2549 22.2648C92.7918 21.9224 93.0642 21.4828 93.072 20.9458C93.0642 20.4945 92.8735 20.1249 92.5 19.837C92.1265 19.5413 91.5506 19.3156 90.7725 19.16L87.6676 18.5413C85.9168 18.1911 84.6133 17.5842 83.7574 16.7204C82.9092 15.8567 82.4851 14.7556 82.4851 13.4171C82.4851 12.2654 82.7963 11.2733 83.4189 10.4406C84.0492 9.60801 84.9324 8.96603 86.0685 8.5147C87.2124 8.06336 88.5508 7.8377 90.0838 7.8377C92.3483 7.8377 94.1303 8.31627 95.4298 9.2734C96.7371 10.2305 97.4997 11.534 97.7176 13.1837Z" fill="#18181B"/>
<path d="M117.202 9.82201C117.038 9.25395 116.809 8.75204 116.513 8.31626C116.217 7.87271 115.856 7.4992 115.428 7.19571C115.007 6.88445 114.525 6.64711 113.98 6.48369C113.443 6.32028 112.848 6.23857 112.194 6.23857C110.973 6.23857 109.899 6.54206 108.973 7.14902C108.054 7.75599 107.339 8.6392 106.825 9.79866C106.311 10.9503 106.055 12.3588 106.055 14.0241C106.055 15.6894 106.308 17.1056 106.813 18.2728C107.319 19.4401 108.035 20.3311 108.961 20.9458C109.887 21.5528 110.98 21.8563 112.241 21.8563C113.385 21.8563 114.361 21.654 115.171 21.2493C115.988 20.8369 116.61 20.2572 117.038 19.5101C117.474 18.7631 117.692 17.8799 117.692 16.8605L118.719 17.0122H112.556V13.207H122.559V16.2185C122.559 18.3195 122.116 20.1249 121.229 21.6345C120.342 23.1364 119.12 24.2958 117.564 25.1129C116.007 25.9222 114.225 26.3268 112.218 26.3268C109.977 26.3268 108.008 25.8327 106.311 24.8444C104.615 23.8484 103.292 22.436 102.343 20.6073C101.401 18.7709 100.93 16.592 100.93 14.0708C100.93 12.1332 101.211 10.4056 101.771 8.88821C102.339 7.36302 103.133 6.07127 104.152 5.01297C105.171 3.95467 106.358 3.14927 107.712 2.59677C109.066 2.04428 110.533 1.76803 112.113 1.76803C113.467 1.76803 114.727 1.96646 115.894 2.36333C117.062 2.75241 118.097 3.3049 118.999 4.02081C119.91 4.73672 120.653 5.58881 121.229 6.57707C121.805 7.55756 122.174 8.6392 122.338 9.82201H117.202ZM131.375 26.3385C130.231 26.3385 129.212 26.1401 128.317 25.7432C127.422 25.3386 126.714 24.7433 126.192 23.9573C125.679 23.1636 125.422 22.1753 125.422 20.9925C125.422 19.9965 125.605 19.16 125.971 18.483C126.336 17.806 126.834 17.2612 127.465 16.8488C128.095 16.4364 128.811 16.1251 129.613 15.915C130.422 15.7049 131.27 15.5571 132.157 15.4715C133.2 15.3625 134.04 15.2614 134.678 15.168C135.316 15.0668 135.779 14.919 136.067 14.7244C136.355 14.5299 136.499 14.242 136.499 13.8607V13.7906C136.499 13.0514 136.266 12.4794 135.799 12.0748C135.34 11.6701 134.686 11.4678 133.838 11.4678C132.943 11.4678 132.231 11.6663 131.702 12.0631C131.173 12.4522 130.823 12.9424 130.651 13.5338L126.052 13.1603C126.286 12.0709 126.745 11.1293 127.43 10.3356C128.115 9.53409 128.998 8.91934 130.079 8.49135C131.169 8.05558 132.429 7.8377 133.861 7.8377C134.857 7.8377 135.811 7.95442 136.721 8.18787C137.639 8.42132 138.452 8.78316 139.161 9.2734C139.876 9.76365 140.441 10.394 140.853 11.1643C141.265 11.9269 141.472 12.8413 141.472 13.9074V26H136.756V23.5138H136.616C136.328 24.074 135.943 24.5682 135.46 24.9962C134.978 25.4164 134.398 25.7471 133.721 25.9883C133.044 26.2218 132.262 26.3385 131.375 26.3385ZM132.799 22.9068C133.531 22.9068 134.176 22.7628 134.737 22.4749C135.297 22.1792 135.737 21.7824 136.056 21.2843C136.375 20.7863 136.534 20.2221 136.534 19.5918V17.6892C136.379 17.7904 136.165 17.8838 135.892 17.9694C135.628 18.0472 135.328 18.1211 134.993 18.1911C134.659 18.2534 134.324 18.3118 133.99 18.3662C133.655 18.4129 133.352 18.4557 133.079 18.4946C132.496 18.5802 131.986 18.7164 131.55 18.9032C131.114 19.0899 130.776 19.3428 130.535 19.6619C130.293 19.9731 130.173 20.3622 130.173 20.8291C130.173 21.5061 130.418 22.0236 130.908 22.3815C131.406 22.7317 132.036 22.9068 132.799 22.9068ZM145.329 26V8.07114H150.068V11.2344H150.279C150.652 10.1839 151.275 9.35511 152.146 8.74814C153.018 8.14118 154.06 7.8377 155.274 7.8377C156.504 7.8377 157.55 8.14507 158.414 8.75982C159.278 9.36678 159.854 10.1916 160.142 11.2344H160.329C160.694 10.2072 161.356 9.38624 162.313 8.77149C163.278 8.14896 164.418 7.8377 165.733 7.8377C167.406 7.8377 168.764 8.37074 169.807 9.43682C170.857 10.4951 171.382 11.997 171.382 13.9424V26H166.422V14.9229C166.422 13.9268 166.157 13.1798 165.628 12.6818C165.099 12.1837 164.437 11.9347 163.643 11.9347C162.741 11.9347 162.037 12.2226 161.531 12.7985C161.025 13.3665 160.772 14.1175 160.772 15.0513V26H155.951V14.8178C155.951 13.9385 155.698 13.2381 155.193 12.7168C154.695 12.1954 154.037 11.9347 153.22 11.9347C152.668 11.9347 152.169 12.0748 151.726 12.3549C151.29 12.6273 150.944 13.0125 150.687 13.5105C150.43 14.0007 150.302 14.5766 150.302 15.238V26H145.329ZM175.31 26V8.07114H180.283V26H175.31ZM177.808 5.76C177.069 5.76 176.435 5.51488 175.905 5.02464C175.384 4.52662 175.123 3.93132 175.123 3.23876C175.123 2.55397 175.384 1.96646 175.905 1.47622C176.435 0.978196 177.069 0.729184 177.808 0.729184C178.547 0.729184 179.178 0.978196 179.699 1.47622C180.228 1.96646 180.493 2.55397 180.493 3.23876C180.493 3.93132 180.228 4.52662 179.699 5.02464C179.178 5.51488 178.547 5.76 177.808 5.76ZM189.238 15.6349V26H184.266V8.07114H189.005V11.2344H189.215C189.612 10.1916 190.277 9.36678 191.211 8.75982C192.145 8.14507 193.277 7.8377 194.608 7.8377C195.853 7.8377 196.938 8.11005 197.864 8.65477C198.79 9.19948 199.51 9.97764 200.024 10.9893C200.537 11.9931 200.794 13.1915 200.794 14.5844V26H195.821V15.4715C195.829 14.3743 195.549 13.5183 194.981 12.9035C194.413 12.281 193.631 11.9697 192.635 11.9697C191.966 11.9697 191.374 12.1137 190.861 12.4016C190.355 12.6895 189.958 13.1097 189.67 13.6622C189.39 14.207 189.246 14.8645 189.238 15.6349ZM212.79 33.0968C211.179 33.0968 209.798 32.8751 208.647 32.4315C207.503 31.9957 206.592 31.4004 205.915 30.6456C205.238 29.8908 204.799 29.0426 204.596 28.101L209.195 27.4824C209.335 27.8404 209.557 28.175 209.86 28.4862C210.164 28.7975 210.565 29.0465 211.063 29.2333C211.569 29.4278 212.183 29.5251 212.907 29.5251C213.989 29.5251 214.88 29.2605 215.58 28.7313C216.288 28.21 216.642 27.3345 216.642 26.1051V22.8251H216.432C216.214 23.3231 215.887 23.7939 215.452 24.2375C215.016 24.681 214.456 25.0429 213.771 25.323C213.086 25.6031 212.269 25.7432 211.32 25.7432C209.973 25.7432 208.748 25.4319 207.643 24.8094C206.546 24.1791 205.67 23.2181 205.016 21.9263C204.371 20.6268 204.048 18.9849 204.048 17.0006C204.048 14.9696 204.378 13.2732 205.04 11.9114C205.701 10.5496 206.581 9.5302 207.678 8.8532C208.783 8.1762 209.993 7.8377 211.308 7.8377C212.312 7.8377 213.152 8.00889 213.829 8.35128C214.506 8.68589 215.051 9.1061 215.463 9.61191C215.883 10.1099 216.206 10.6002 216.432 11.0826H216.619V8.07114H221.556V26.1751C221.556 27.7003 221.183 28.9765 220.436 30.0036C219.689 31.0308 218.654 31.8012 217.331 32.3148C216.016 32.8362 214.502 33.0968 212.79 33.0968ZM212.895 22.008C213.697 22.008 214.374 21.8096 214.926 21.4127C215.487 21.0081 215.915 20.4322 216.21 19.6852C216.514 18.9304 216.666 18.0277 216.666 16.9772C216.666 15.9267 216.518 15.0162 216.222 14.2459C215.926 13.4677 215.498 12.8646 214.938 12.4366C214.378 12.0086 213.697 11.7946 212.895 11.7946C212.078 11.7946 211.39 12.0164 210.829 12.46C210.269 12.8957 209.845 13.5027 209.557 14.2809C209.269 15.059 209.125 15.9578 209.125 16.9772C209.125 18.0122 209.269 18.9071 209.557 19.6619C209.853 20.4089 210.277 20.9886 210.829 21.4011C211.39 21.8057 212.078 22.008 212.895 22.008Z" fill="#EA580C"/>
</svg>
